<svg version="1.1" id="Layer_1" xmlns="http://www.w3.org/2000/svg" xmlns:xlink="http://www.w3.org/1999/xlink" x="0px" y="0px"
	 width="100%" viewBox="0 0 336 336" enable-background="new 0 0 336 336" xml:space="preserve">
<path fill="#000000" opacity="1.000000" stroke="none" 
	d="
M177.747375,243.805908 
	C187.551575,241.301575 197.013290,238.972092 206.908539,236.535873 
	C204.759552,235.384598 204.424896,234.538498 206.484528,233.528259 
	C212.344498,230.654022 217.545486,226.736145 222.800049,222.924042 
	C226.764954,220.047577 230.801468,217.213058 233.987167,212.706787 
	C231.110565,213.523422 229.964417,216.416870 227.391235,216.342590 
	C270.326691,171.020096 275.153503,123.156799 237.025314,72.363441 
	C208.287735,43.867672 174.722794,33.016499 135.331573,45.502388 
	C101.301178,56.289051 66.757080,90.920616 66.988014,143.659973 
	C64.010902,142.756012 62.900990,140.794342 63.083389,137.876831 
	C63.311653,134.225845 63.604523,130.573563 63.666595,126.918396 
	C64.074638,102.891487 75.006737,83.385185 90.650024,66.328651 
	C107.063400,48.432461 127.628914,37.923756 151.837524,34.549519 
	C199.599701,27.892355 244.227371,54.204498 262.365082,94.030251 
	C289.743286,154.145752 261.283630,225.271652 195.461365,244.490952 
	C187.299316,246.874176 178.813599,249.559479 170.474350,248.045975 
	C163.230560,246.731262 155.755524,246.989639 147.830627,244.607788 
	C152.871735,242.437286 157.198074,245.701920 161.380615,244.358170 
	C166.695435,242.650650 172.098038,245.493088 177.747375,243.805908 
z"/>
<path fill="#000000" opacity="1.000000" stroke="none" 
	d="
M144.557846,100.642075 
	C144.454010,96.865738 144.634216,93.491203 144.084503,90.240089 
	C143.365341,85.986664 141.712006,85.504791 138.435089,88.324097 
	C133.134125,92.884796 129.809021,98.978676 126.787552,105.045654 
	C116.444420,125.814163 111.866333,147.922363 112.155304,171.127670 
	C112.202446,174.912796 114.405891,177.919022 114.877113,181.637314 
	C111.994888,182.634949 111.038200,180.748596 110.131523,179.023773 
	C108.383972,175.699295 107.897812,171.935760 107.881264,168.363571 
	C107.747765,139.552032 114.372986,112.664459 131.397156,88.912643 
	C132.639359,87.179527 134.204468,85.583191 135.896622,84.284348 
	C141.749985,79.791504 146.205811,81.709770 147.535187,88.917953 
	C149.409729,99.082161 147.860092,109.154007 146.834869,119.204338 
	C145.639740,130.920135 143.869629,142.576889 142.405411,154.266312 
	C142.268204,155.361633 142.535324,156.507584 142.657623,158.236557 
	C145.376160,156.624207 146.116531,154.161026 147.331223,152.153656 
	C162.807449,126.577873 180.049973,102.315323 200.657288,80.573273 
	C205.353470,75.618507 210.243698,70.809212 216.784744,68.197105 
	C221.105011,66.471832 223.820969,67.664108 225.196075,72.121109 
	C227.106186,78.312141 226.704437,84.716255 226.050522,90.965324 
	C221.744995,132.110748 212.297729,172.156769 199.741058,211.511856 
	C199.265366,213.002762 199.308594,214.937897 197.065948,215.393448 
	C194.808594,214.103424 196.017517,212.266876 196.444916,210.635620 
	C203.393860,184.112762 210.527023,157.618393 215.009399,130.542145 
	C217.715836,114.193642 221.315155,97.934174 221.656311,81.263908 
	C221.704605,78.905289 222.638092,75.839195 219.734573,74.567993 
	C217.104919,73.416687 214.959824,75.534653 212.996735,76.953629 
	C202.474777,84.559181 194.424042,94.592728 186.444733,104.631073 
	C173.057159,121.473297 161.445831,139.571411 149.607147,157.502899 
	C149.240143,158.058792 148.942459,158.670547 148.517242,159.176193 
	C146.672485,161.369919 145.541000,165.372055 141.916855,164.165176 
	C138.090225,162.890884 138.424927,158.826523 138.759598,155.563950 
	C140.198990,141.531586 141.797073,127.515121 143.403503,113.500443 
	C143.876587,109.373245 143.227066,105.148659 144.557846,100.642075 
z"/>
<path fill="#000000" opacity="1.000000" stroke="none" 
	d="
M167.635193,276.921448 
	C167.958572,273.825043 168.355316,271.198517 168.573654,268.557190 
	C168.758804,266.317291 168.781525,264.203918 171.858139,263.958374 
	C174.760788,263.726715 176.053650,265.308807 176.954300,267.709717 
	C178.588196,272.065155 180.284409,276.397766 182.010452,280.717590 
	C182.420959,281.744995 183.052216,282.684204 184.048447,284.526794 
	C186.412277,278.541779 188.556641,273.386047 190.474228,268.147339 
	C191.505646,265.329529 192.928284,263.486786 196.251083,263.982330 
	C199.953506,264.534515 199.117050,267.430237 199.321014,269.790649 
	C199.920151,276.724518 200.518341,283.658539 201.091309,290.594635 
	C201.252518,292.546387 201.856964,294.828888 198.864594,295.200378 
	C195.995575,295.556610 195.753067,293.586304 195.576141,291.407257 
	C195.193359,286.692566 194.654999,281.990448 194.040955,275.901764 
	C190.462570,281.168793 189.419373,286.044098 187.465881,290.491577 
	C186.652298,292.343842 186.705215,295.177277 183.779617,295.147125 
	C180.908569,295.117584 180.857727,292.281219 180.063675,290.446014 
	C178.090012,285.884277 176.371765,281.212067 174.242538,275.800446 
	C173.348068,281.546051 171.969971,286.359650 172.227280,291.448608 
	C172.321808,293.318146 171.820419,295.228729 169.277176,295.214844 
	C166.509445,295.199707 166.657471,293.077576 166.738144,291.295929 
	C166.948303,286.654938 167.322464,282.021393 167.635193,276.921448 
z"/>
<path fill="#000000" opacity="1.000000" stroke="none" 
	d="
M272.662750,278.588287 
	C272.650421,277.110382 272.650421,276.019623 272.650421,274.928833 
	C272.381561,274.893677 272.112701,274.858490 271.843811,274.823303 
	C269.887970,279.870941 268.031555,284.960541 265.927246,289.945526 
	C265.087830,291.934021 265.139160,295.054565 262.075806,295.110291 
	C258.890350,295.168243 259.119476,291.982574 258.268646,290.001678 
	C256.385437,285.617310 254.688889,281.152740 251.968338,276.828186 
	C251.418945,281.529358 250.839020,286.227234 250.334732,290.933228 
	C250.123138,292.907806 250.420471,295.248138 247.470779,295.217682 
	C244.003357,295.181915 244.716431,292.470276 244.858902,290.463531 
	C245.387436,283.019165 246.119186,275.589294 246.661728,268.145782 
	C246.822357,265.942139 247.207947,264.216125 249.848663,263.956726 
	C252.305954,263.715302 254.034424,264.495453 254.939667,266.917999 
	C256.277405,270.497894 257.689819,274.050018 259.081696,277.609558 
	C259.740540,279.294464 260.230835,281.109131 262.675568,282.155212 
	C265.497772,278.716034 266.011169,274.125092 267.965607,270.256470 
	C268.711853,268.779388 269.101410,267.112244 269.918671,265.683411 
	C270.998230,263.796082 272.951050,263.893127 274.801544,264.078186 
	C276.650757,264.263214 277.179993,265.505890 277.314819,267.196838 
	C277.934235,274.965271 278.694397,282.723297 279.231689,290.496948 
	C279.367371,292.460205 280.046387,295.246918 276.553070,295.211151 
	C273.652374,295.181488 273.859772,292.862122 273.696899,290.876160 
	C273.371399,286.908020 273.017365,282.942200 272.662750,278.588287 
z"/>
<path fill="#000000" opacity="1.000000" stroke="none" 
	d="
M50.319920,288.225220 
	C48.720375,290.789154 49.432068,295.027557 45.804546,295.037384 
	C42.144081,295.047333 42.552528,290.971100 41.486580,288.575226 
	C39.601006,284.337036 38.044319,279.952515 35.875633,274.418884 
	C35.486622,280.714844 34.101326,285.669525 34.208401,290.857239 
	C34.248528,292.801453 34.149963,295.161285 31.286764,295.186096 
	C28.136423,295.213440 28.621698,292.668396 28.751301,290.830872 
	C29.311281,282.891541 30.071150,274.966522 30.693422,267.031219 
	C30.856792,264.947906 31.987551,264.139252 33.906261,264.007935 
	C36.151623,263.854279 37.737476,264.628204 38.576977,266.856934 
	C40.040558,270.742523 41.605244,274.590088 43.133778,278.451141 
	C43.677113,279.823578 44.017162,281.534546 45.938305,281.457703 
	C47.572502,281.392365 47.889996,279.799835 48.374031,278.616913 
	C49.884396,274.925751 51.376419,271.223328 52.726547,267.471649 
	C53.743866,264.644714 55.595787,263.570496 58.498585,264.113678 
	C61.479034,264.671448 61.150955,267.014832 61.323814,269.161621 
	C61.908859,276.427368 62.570114,283.687042 63.147449,290.953369 
	C63.288548,292.729218 63.736904,294.829742 61.048161,295.201111 
	C58.265392,295.585480 57.793869,293.829102 57.619236,291.551178 
	C57.241680,286.626312 56.678497,281.715698 56.103523,275.914093 
	C52.681156,279.803436 52.389423,284.241028 50.319920,288.225220 
z"/>
<path fill="#000000" opacity="1.000000" stroke="none" 
	d="
M307.001038,295.377716 
	C296.540619,295.218903 291.486298,289.735107 291.603851,279.166199 
	C291.707642,269.837097 297.639008,263.756561 306.721069,263.668884 
	C316.208710,263.577301 322.216400,269.523529 322.336060,279.124146 
	C322.468445,289.744385 317.482849,295.189545 307.001038,295.377716 
M313.210266,271.177307 
	C307.840240,268.068268 302.633087,268.596313 299.301941,272.587769 
	C296.170319,276.340149 296.302917,283.843903 299.563477,287.388489 
	C303.000427,291.124847 308.397705,291.706116 312.715363,288.804840 
	C317.904816,285.317749 318.397278,277.504578 313.210266,271.177307 
z"/>
<path fill="#000000" opacity="1.000000" stroke="none" 
	d="
M89.070976,290.624573 
	C90.506920,290.666016 91.504860,290.687897 92.500343,290.749481 
	C93.875870,290.834534 94.632774,291.562866 94.646866,292.963959 
	C94.660820,294.351379 93.931252,295.238251 92.572449,295.252777 
	C88.086090,295.300903 83.594872,295.342987 79.113266,295.177460 
	C77.203072,295.106903 76.877693,293.426575 76.873001,291.858002 
	C76.848602,283.707245 76.859589,275.556396 76.865288,267.405579 
	C76.865524,267.075592 76.910576,266.740112 76.978973,266.416565 
	C77.550903,263.710754 79.799362,263.688751 81.704544,263.922363 
	C85.972855,264.445709 90.842690,261.899963 94.391266,265.715912 
	C95.608818,267.025208 94.487450,268.969788 92.331474,269.206177 
	C90.685677,269.386597 89.009499,269.344055 87.348190,269.317108 
	C84.383743,269.269073 82.191879,269.690063 82.325447,273.624023 
	C82.445869,277.170776 84.309319,277.790161 87.159203,277.648712 
	C87.822685,277.615784 88.493774,277.609161 89.154320,277.668640 
	C90.871185,277.823242 93.168594,277.188568 93.232506,280.012451 
	C93.299812,282.985931 90.895035,282.070892 89.244728,282.348206 
	C86.958405,282.732452 84.059525,281.525116 82.834312,284.755981 
	C81.209198,289.041290 82.709068,290.561279 89.070976,290.624573 
z"/>
<path fill="#000000" opacity="1.000000" stroke="none" 
	d="
M224.928192,269.333435 
	C221.319946,269.157593 220.212601,270.661133 220.306335,273.865326 
	C220.402527,277.153839 222.183929,277.752075 224.832092,277.638245 
	C224.997894,277.631104 225.172150,277.608093 225.329361,277.646332 
	C227.337219,278.135315 230.770432,276.395721 230.901505,279.884033 
	C231.037292,283.498474 227.528610,282.337036 225.529800,282.317139 
	C222.140503,282.283386 220.203323,282.973267 220.312149,286.961060 
	C220.429184,291.250610 223.297791,290.340820 225.866104,290.662537 
	C228.221802,290.957642 232.351288,289.053131 232.439575,292.795380 
	C232.541656,297.121887 228.152237,295.288818 225.774765,295.298645 
	C213.198090,295.350708 214.966034,296.825928 214.832062,284.591766 
	C214.772018,279.108917 214.867844,273.624390 214.815643,268.141357 
	C214.788147,265.255890 216.024582,263.821320 218.983780,263.876404 
	C222.139694,263.935181 225.298492,263.839050 228.454422,263.897430 
	C230.285324,263.931274 232.383804,263.889771 232.494843,266.482788 
	C232.624969,269.521637 230.289368,269.243591 228.302139,269.306427 
	C227.305984,269.337952 226.308258,269.319092 224.928192,269.333435 
z"/>
<path fill="#000000" opacity="1.000000" stroke="none" 
	d="
M123.643837,295.109680 
	C107.701355,295.946136 107.702042,295.946136 107.705757,280.601715 
	C107.706604,277.103241 107.696442,273.604767 107.700958,270.106293 
	C107.702248,269.107147 107.719589,268.107330 107.760246,267.109070 
	C107.887032,263.996735 110.212318,263.687683 112.388023,263.973541 
	C116.622169,264.529877 121.541039,261.816528 124.953751,265.919159 
	C126.056557,267.244904 124.817749,269.129425 122.601593,269.224457 
	C120.938286,269.295807 119.265045,269.388184 117.607468,269.286987 
	C114.294182,269.084778 113.307228,270.709320 113.281670,273.823853 
	C113.254814,277.097107 114.910881,277.836853 117.662849,277.652863 
	C118.491608,277.597443 119.331963,277.608307 120.160156,277.674530 
	C121.755814,277.802094 123.847107,277.412659 123.938370,279.837402 
	C124.045021,282.671082 121.712578,282.223877 119.974792,282.296112 
	C116.705482,282.431946 113.058746,281.559814 113.297386,287.025238 
	C113.527008,292.284271 117.302834,290.145111 119.853996,290.609039 
	C120.663849,290.756287 121.523911,290.605804 122.346680,290.707489 
	C125.422928,291.087616 126.091698,292.497406 123.643837,295.109680 
z"/>
<path fill="#000000" opacity="1.000000" stroke="none" 
	d="
M150.555847,269.498077 
	C147.945374,270.541412 148.349289,272.549652 148.332947,274.321045 
	C148.285339,279.480743 148.411331,284.643829 148.268951,289.800018 
	C148.211090,291.894806 149.264114,295.012939 145.605255,295.155212 
	C141.816376,295.302551 142.795486,292.138611 142.744125,290.040222 
	C142.609726,284.550323 142.604126,279.053467 142.716660,273.562866 
	C142.774872,270.722900 141.969330,269.089447 138.792374,269.287354 
	C137.052322,269.395721 135.261490,269.050293 135.191254,266.807892 
	C135.111511,264.262024 137.096268,263.959198 138.992798,263.923859 
	C142.986267,263.849426 146.983627,263.819000 150.975876,263.915558 
	C153.012894,263.964813 155.856445,263.358978 155.857178,266.616821 
	C155.857895,269.862091 152.950699,269.077026 150.555847,269.498077 
z"/>
<path fill="#000000" opacity="1.000000" stroke="none" 
	d="
M131.422363,240.885254 
	C129.405167,239.846985 127.114708,239.945496 126.226700,237.790268 
	C127.123070,236.326355 128.442383,237.888412 129.810440,236.929413 
	C121.648216,234.177582 114.595879,230.082504 108.552162,224.048416 
	C110.074486,223.049835 110.889748,223.852219 111.666847,224.355423 
	C120.488327,230.067932 129.724075,234.879852 139.855042,237.893646 
	C141.167572,238.284088 143.895752,238.242203 142.304520,241.362030 
	C141.477127,242.984283 144.577301,242.192795 144.772751,244.024734 
	C140.003082,244.337601 135.950043,242.389648 131.422363,240.885254 
z"/>
<path fill="#000000" opacity="1.000000" stroke="none" 
	d="
M101.064461,220.942841 
	C103.900307,223.658585 107.539856,224.926773 109.728569,228.306534 
	C98.638565,226.832169 72.072487,195.335083 71.408836,181.924881 
	C79.435135,197.225342 88.430046,210.290482 101.064461,220.942841 
z"/>
</svg>